<svg xmlns="http://www.w3.org/2000/svg" width="45" height="45" viewBox="0 0 512 512"><path d="M512 344.276c0 29.131-15.89 52.966-35.31 52.966-19.421 0-35.31-23.834-35.31-52.966 0-29.131 15.89-52.966 35.31-52.966S512 315.145 512 344.276" fill="#a52525"/><path d="M441.379 344.276c0-29.131 15.89-52.966 35.31-52.966h-256c-19.421 0-35.31 23.835-35.31 52.966s15.89 52.966 35.31 52.966h256c-19.42-.001-35.31-23.835-35.31-52.966" fill="#bc342e"/><path d="M256 0v291.31h220.69c19.421 0 35.31 23.835 35.31 52.966V0H256z" fill="#e15649"/><path d="M220.69 397.241c-19.421 0-35.31-23.834-35.31-52.966 0-29.131 15.89-52.966 35.31-52.966H256V0H0v512h256V397.241h-35.31z" fill="#fbf7f2"/></svg>
