<svg width="45" height="45" viewBox="0 0 512 512" xmlns="http://www.w3.org/2000/svg"><style>.st2{fill:#fff}</style><path d="M492.3 443.1c0 34.2-27.7 61.9-61.9 61.9H80.7c-34.2 0-61.9-27.7-61.9-61.9V93.4c0-34.2 27.7-61.9 61.9-61.9h349.7c34.2 0 61.9 27.7 61.9 61.9v349.7z" fill="#ea4157" id="Background_Bottom"/><g id="Background"><radialGradient cx="62.823" cy="1010.224" gradientTransform="matrix(.9986 -.05234 -.04449 -.8488 45.026 1332.45)" gradientUnits="userSpaceOnUse" id="SVGID_1_" r="684.523"><stop offset="0" stop-color="#fed576"/><stop offset=".263" stop-color="#f47133"/><stop offset=".609" stop-color="#bc3081"/><stop offset="1" stop-color="#4c63d2"/></radialGradient><path d="M431 480.3H81.3c-34.2 0-61.9-27.7-61.9-61.9V68.6c0-34.2 27.7-61.9 61.9-61.9H431c34.2 0 61.9 27.7 61.9 61.9v349.7c0 34.3-27.7 62-61.9 62z" fill="url(#SVGID_1_)"/></g><g id="Symbol"><path class="st2" d="M255.1 139.9c37.9 0 42.4.1 57.4.8 13.8.6 21.4 2.9 26.4 4.9 6.6 2.6 11.4 5.7 16.3 10.6 5 5 8 9.7 10.6 16.3 1.9 5 4.3 12.5 4.9 26.4.7 15 .8 19.5.8 57.4s-.1 42.4-.8 57.4c-.6 13.8-2.9 21.4-4.9 26.4-2.6 6.6-5.7 11.4-10.6 16.3-5 5-9.7 8-16.3 10.6-5 1.9-12.5 4.3-26.4 4.9-15 .7-19.5.8-57.4.8s-42.4-.1-57.4-.8c-13.8-.6-21.4-2.9-26.4-4.9-6.6-2.6-11.4-5.7-16.3-10.6-5-5-8-9.7-10.6-16.3-1.9-5-4.3-12.5-4.9-26.4-.7-15-.8-19.5-.8-57.4s.1-42.4.8-57.4c.6-13.8 2.9-21.4 4.9-26.4 2.6-6.6 5.7-11.4 10.6-16.3 5-5 9.7-8 16.3-10.6 5-1.9 12.5-4.3 26.4-4.9 15-.6 19.5-.8 57.4-.8m0-25.6c-38.6 0-43.4.2-58.6.9-15.1.7-25.4 3.1-34.5 6.6-9.3 3.6-17.3 8.5-25.2 16.4-7.9 7.9-12.8 15.8-16.4 25.2-3.5 9-5.9 19.4-6.6 34.5-.7 15.2-.9 20-.9 58.6s.2 43.4.9 58.6c.7 15.1 3.1 25.4 6.6 34.5 3.6 9.3 8.5 17.3 16.4 25.2 7.9 7.9 15.8 12.8 25.2 16.4 9 3.5 19.4 5.9 34.5 6.6 15.2.7 20 .9 58.6.9s43.4-.2 58.6-.9c15.1-.7 25.4-3.1 34.5-6.6 9.3-3.6 17.3-8.5 25.2-16.4 7.9-7.9 12.8-15.8 16.4-25.2 3.5-9 5.9-19.4 6.6-34.5.7-15.2.9-20 .9-58.6s-.2-43.4-.9-58.6c-.7-15.1-3.1-25.4-6.6-34.5-3.6-9.3-8.5-17.3-16.4-25.2-7.9-7.9-15.8-12.8-25.2-16.4-9-3.5-19.4-5.9-34.5-6.6-15.2-.7-20-.9-58.6-.9z"/><path class="st2" d="M255.1 183.4c-40.3 0-72.9 32.7-72.9 72.9s32.7 72.9 72.9 72.9 72.9-32.7 72.9-72.9-32.6-72.9-72.9-72.9zm0 120.3c-26.2 0-47.3-21.2-47.3-47.3 0-26.2 21.2-47.3 47.3-47.3s47.3 21.2 47.3 47.3c.1 26.1-21.1 47.3-47.3 47.3z"/><circle class="st2" cx="331" cy="180.6" r="17"/></g></svg>
