<svg width="45" height="45" viewBox="0 0 64 64" xmlns="http://www.w3.org/2000/svg"><g data-name="04-facebook"><rect height="62" rx="6" width="62" x="1" y="1" fill="#3b5998"/><path d="M57 1H7a6 6 0 00-6 6v10a22 22 0 0022 22h18a22 22 0 0022-22V7a6 6 0 00-6-6z" fill="#3b5998"/><path d="M57 1H7a6 6 0 00-6 6v4a6 6 0 016-6h50a6 6 0 016 6V7a6 6 0 00-6-6z" fill="#3b5998"/><path d="M57 59H7a6 6 0 01-6-6v4a6 6 0 006 6h50a6 6 0 006-6v-4a6 6 0 01-6 6z" fill="#30497b"/><path fill="#aeb2d4" d="M30 59h10v4H30z"/><path d="M43 21h11V11H42a12 12 0 00-12 12v6h-8v10h8v20h10V39h12l2-10H40v-5a3 3 0 013-3z" fill="#fdfef9"/><path fill="#30497b" d="M22 39h8v3h-8zM40 39v3h12l2-10h-.6L52 39H40zM40 24v3a3 3 0 013-3h11v-3H43a3 3 0 00-3 3z"/></g></svg>
