<svg xmlns:xlink="http://www.w3.org/2000/svg">
	<defs>
		<symbol id="diamante" viewBox="0 0 58 58"><path fill="#cc2e48" d="M29 55L0 19h58z"/><path fill="#fc3952" d="M58 19H0L10 3h38z"/><path fill="#f76363" d="M42.154 19L48 3H10l5.846 16z"/><path fill="#f49a9a" d="M42 19L29 3 16 19z"/><path fill="#cb465f" d="M15.846 19L29 55l13.154-36z"/></symbol>

		<symbol id="instalacao" viewBox="0 0 512 512"><path d="M512 344.276c0 29.131-15.89 52.966-35.31 52.966-19.421 0-35.31-23.834-35.31-52.966 0-29.131 15.89-52.966 35.31-52.966S512 315.145 512 344.276" fill="#a52525"/><path d="M441.379 344.276c0-29.131 15.89-52.966 35.31-52.966h-256c-19.421 0-35.31 23.835-35.31 52.966s15.89 52.966 35.31 52.966h256c-19.42-.001-35.31-23.835-35.31-52.966" fill="#bc342e"/><path d="M256 0v291.31h220.69c19.421 0 35.31 23.835 35.31 52.966V0H256z" fill="#e15649"/><path d="M220.69 397.241c-19.421 0-35.31-23.834-35.31-52.966 0-29.131 15.89-52.966 35.31-52.966H256V0H0v512h256V397.241h-35.31z" fill="#fbf7f2"/></symbol>

		<symbol id="reparo" viewBox="0 0 511.999 511.999"><path d="M7.549 111.97s.721 259.696 0 287.56c.721 26.66 22.544 48.055 49.378 48.055h247.781l164.44-164.44V111.97H7.549z" fill="#e0e0e2"/><path d="M248.63 503.664h255.854V247.81L248.63 503.664zm201.528-53.274h-82.126l82.126-82.126v82.126z" fill="#ffca10"/><path fill="#ffa304" d="M479.435 272.859v230.805h25.049V247.81z"/><path d="M447.26 36.199l-23.354-23.355c-6.014-6.014-15.764-6.014-21.777 0L381.923 33.05l45.131 45.131 20.205-20.205c6.014-6.014 6.014-15.763.001-21.777z" fill="#546f7a"/><path d="M447.26 36.199l-15.046-15.042c6.014 6.014 6.014 15.764 0 21.777L412.01 63.138l15.044 15.044 20.205-20.205c6.014-6.015 6.014-15.764.001-21.778z" fill="#475d63"/><path fill="#ff6137" d="M381.917 33.047l45.13 45.13-24.416 24.416-45.13-45.13z"/><path fill="#e04f32" d="M412.015 63.133l15.04 15.041-24.416 24.416-15.04-15.04z"/><path fill="#ffc89f" d="M166.667 293.437l69.683-24.598-45.085-45.084z"/><path fill="#f7b081" d="M221.357 253.847l-46.51 16.417-8.18 23.173 69.683-24.598z"/><path fill="#ffd039" d="M402.629 102.608L236.42 268.817l-45.131-45.131L357.498 57.478z"/><path fill="#ffa304" d="M402.629 102.609L236.42 268.817l-15.026-15.027L387.602 87.582z"/><path d="M59.105 349.296V30.111c-28.493 0-51.591 23.098-51.591 51.591v319.185c.001-28.493 23.099-51.591 51.591-51.591z" fill="#919191"/><g fill="#c6c5ca"><path d="M138.612 293.437h28.055l24.624-69.754L303.003 111.97h-28.055L163.236 223.683zM444.1 111.97v196.224l25.049-25.049V111.97z"/></g><path fill="#3c5156" d="M166.667 293.437l32.52-11.479-21.04-21.039z"/><path d="M453.034 361.322a7.514 7.514 0 00-8.19 1.628l-82.126 82.126a7.516 7.516 0 005.315 12.829h82.126a7.514 7.514 0 007.515-7.515v-82.126a7.517 7.517 0 00-4.64-6.942zm-10.39 81.554h-56.47l56.469-56.469.001 56.469z"/><path d="M507.361 240.867a7.514 7.514 0 00-8.19 1.628l-22.507 22.507V111.971a7.515 7.515 0 00-7.515-7.515h-57.741l20.96-20.96.009-.01 20.196-20.196c4.327-4.327 6.71-10.083 6.71-16.203s-2.383-11.874-6.71-16.203L429.219 7.53A22.767 22.767 0 00413.016.82a22.768 22.768 0 00-16.203 6.71l-20.206 20.206-24.416 24.416-52.303 52.303H66.62V30.11a7.515 7.515 0 00-7.515-7.515C26.515 22.597 0 49.11 0 81.702v319.186c0 .555.064 1.095.178 1.615 1.038 13.829 7.021 26.678 17.02 36.432C27.886 449.359 41.995 455.1 56.927 455.1h229.638l-43.249 43.249a7.516 7.516 0 005.314 12.829h255.855a7.515 7.515 0 007.515-7.515V247.81a7.517 7.517 0 00-4.639-6.943zM381.922 43.679l34.505 34.504-13.789 13.789-34.503-34.504 13.787-13.789zm25.521-25.52c3.072-3.074 8.077-3.074 11.149 0l23.355 23.355c3.074 3.073 3.074 8.076 0 11.15l-14.891 14.892-34.506-34.505 14.893-14.892zm-140.671 477.99l43.236-43.236.015-.013 19.219-19.22 13.437-13.437a7.515 7.515 0 000-10.628 7.572 7.572 0 00-1.078-.889 7.514 7.514 0 00-9.551.889l-30.456 30.456H56.928c-22.791 0-41.14-17.794-41.862-40.545a44.19 44.19 0 01.332-4.244l.003-.024c.084-.665.185-1.327.3-1.985l.04-.225a43.474 43.474 0 011.057-4.494c.11-.382.224-.762.345-1.14.121-.377.249-.75.381-1.123.091-.26.181-.522.279-.78.183-.492.377-.979.577-1.462.057-.139.113-.28.172-.419.257-.6.524-1.193.806-1.779l.035-.075c5.877-12.164 17.183-21.233 30.75-24.047l.114-.025c.622-.127 1.25-.236 1.882-.337.105-.017.21-.038.317-.054a44.641 44.641 0 011.725-.22c.162-.018.323-.043.486-.059a44.442 44.442 0 011.681-.128c.178-.011.356-.03.534-.039a44.298 44.298 0 012.223-.056 7.515 7.515 0 007.515-7.515v-54.489a7.515 7.515 0 10-15.03 0v47.447c-12.69 1.605-24.469 7.265-33.757 16.335a59.926 59.926 0 00-2.804 2.954V81.702c0-21.741 15.826-39.858 36.561-43.436V264.749a7.516 7.516 0 0015.03 0V119.486h218.24l-41.544 41.544a7.515 7.515 0 0010.627 10.628l54.373-54.373.005-.005 49.185-49.185 34.503 34.505-4.048 4.048-.01.009-151.528 151.53-34.504-34.504 29.868-29.868a7.515 7.515 0 00-10.627-10.628l-35.183 35.182a7.546 7.546 0 00-.529.591c-.055.068-.104.141-.156.212-.106.141-.21.283-.307.431-.055.086-.105.174-.157.262a6.301 6.301 0 00-.371.714 7.526 7.526 0 00-.186.447c-.02.053-.046.103-.065.156l-14.641 41.475-9.982 28.279a7.599 7.599 0 00-.298 1.143h-24.992a7.515 7.515 0 100 15.03h208.114a7.514 7.514 0 007.515-7.515 7.514 7.514 0 00-7.515-7.515H193.093l45.83-16.178c.038-.014.074-.033.112-.047.178-.066.353-.14.526-.219.069-.032.138-.062.205-.095.18-.09.357-.189.531-.295.056-.034.114-.065.169-.1.181-.116.357-.243.53-.377.043-.033.088-.062.13-.096.209-.168.414-.349.608-.543l154.644-154.643h65.255v160.546L354.137 387.53a7.515 7.515 0 1010.628 10.628L474.463 288.46l.008-.009 22.499-22.499v66.301h-13.865c-4.151 0-7.515 3.364-7.515 7.515s3.364 7.515 7.515 7.515h13.865v22.646h-13.865a7.514 7.514 0 00-7.515 7.515 7.514 7.514 0 007.515 7.515h13.865v22.645h-13.865a7.514 7.514 0 00-7.515 7.515 7.514 7.514 0 007.515 7.515h13.865v22.646h-13.865a7.515 7.515 0 100 15.03h13.865v35.842l-230.198-.003zm-65.621-222.854l-14.342-14.342 7.599-21.526 28.269 28.269-21.526 7.599z"/></symbol>

		<symbol id="venda" viewBox="0 0 512.049 512.049"><path d="M283.81 497.066V364.478h-55.572v132.588a7.483 7.483 0 007.483 7.483h40.605a7.483 7.483 0 007.484-7.483z" fill="#d7d0d6"/><path d="M299.501 343.031h-86.953v39.567a8.879 8.879 0 008.879 8.879h69.195a8.879 8.879 0 008.879-8.879z" fill="#baafb9"/><path d="M256.321 382.598v-39.567h-43.773v39.567a8.879 8.879 0 008.879 8.879H265.2a8.878 8.878 0 01-8.879-8.879z" fill="#aa9ea9"/><path d="M320.679 300.648H191.37v41.529c0 7.099 5.755 12.854 12.854 12.854h103.601c7.099 0 12.854-5.755 12.854-12.854zM272.075 7.5h-32.101c-6.481 0-11.735 5.254-11.735 11.735v76.528h55.572V19.236C283.81 12.754 278.556 7.5 272.075 7.5z" fill="#d7d0d6"/><path d="M320.679 328.647v-28H191.37v41.529c0 7.099 5.755 12.854 12.854 12.854h43.773c-7.099 0-12.854-5.755-12.854-12.854V339.8c0-6.159 4.993-11.153 11.153-11.153zM228.239 53.764h55.572v42h-55.572z" fill="#c9bfc8"/><path d="M478.182 308.648H33.867c-14.453 0-26.17-11.717-26.17-26.17V99.933c0-14.453 11.717-26.17 26.17-26.17h444.315c14.453 0 26.17 11.717 26.17 26.17v182.545c0 14.453-11.717 26.17-26.17 26.17z" fill="#6ed5a1"/><path d="M83.128 282.478V99.933c0-14.453 11.717-26.17 26.17-26.17H33.867c-14.453 0-26.17 11.717-26.17 26.17v182.545c0 14.453 11.717 26.17 26.17 26.17h75.431c-14.454 0-26.17-11.717-26.17-26.17z" fill="#46cc8d"/><path d="M37.697 270.091v-157.77a8.557 8.557 0 018.557-8.557h419.54a8.557 8.557 0 018.557 8.557v157.77a8.557 8.557 0 01-8.557 8.557H46.254a8.558 8.558 0 01-8.557-8.557z" fill="#f9f7f8"/><path d="M46.254 103.764a8.557 8.557 0 00-8.557 8.557v157.77a8.557 8.557 0 008.557 8.557h36.874V103.764z" fill="#efedef"/><g><path d="M478.182 66.264H291.311V19.235C291.311 8.629 282.682 0 272.075 0h-32.101c-10.606 0-19.235 8.629-19.235 19.235v47.028H33.867C15.302 66.263.198 81.367.198 99.933v182.545c0 18.565 15.104 33.67 33.669 33.67h51.364c4.142 0 7.5-3.357 7.5-7.5s-3.358-7.5-7.5-7.5H33.867c-10.294 0-18.669-8.375-18.669-18.67V99.934c0-10.295 8.375-18.67 18.669-18.67h444.315c10.295 0 18.67 8.375 18.67 18.67v182.545c0 10.295-8.375 18.67-18.67 18.67H117.193c-4.142 0-7.5 3.357-7.5 7.5s3.358 7.5 7.5 7.5h66.676v26.028c0 11.224 9.131 20.354 20.354 20.354h.824v20.067c0 8.799 6.98 15.979 15.691 16.344v105.606c0 4.143 3.358 7.5 7.5 7.5s7.5-3.357 7.5-7.5v-105.57h40.572v39.587c0 4.143 3.357 7.5 7.5 7.5s7.5-3.357 7.5-7.5v-39.622c8.711-.365 15.69-7.545 15.69-16.344v-20.067h.824c11.223 0 20.354-9.131 20.354-20.354V316.15h150.003c18.565 0 33.67-15.104 33.67-33.67V99.934c.001-18.566-15.104-33.67-33.669-33.67zm-242.443 0V19.235A4.24 4.24 0 01239.974 15h32.101a4.24 4.24 0 014.235 4.235v47.028h-40.571zm56.262 316.335a1.38 1.38 0 01-1.379 1.379h-69.195a1.38 1.38 0 01-1.379-1.379v-20.067h71.953zm21.178-40.422a5.36 5.36 0 01-5.354 5.354H204.224a5.36 5.36 0 01-5.354-5.354v-26.028h114.309z"/><path d="M383.703 96.264H37.697a7.5 7.5 0 00-7.5 7.5v174.884a7.5 7.5 0 007.5 7.5h436.654c4.143 0 7.5-3.357 7.5-7.5V103.764c0-4.143-3.357-7.5-7.5-7.5h-58.686c-4.143 0-7.5 3.357-7.5 7.5s3.357 7.5 7.5 7.5h51.186v159.884H45.197V111.264h338.506c4.143 0 7.5-3.357 7.5-7.5s-3.357-7.5-7.5-7.5z"/><path d="M172.108 160.682c4.142 0 7.5-3.357 7.5-7.5s-3.358-7.5-7.5-7.5h-35.277c-6.609 0-11.985 5.377-11.985 11.985v29.87c0 6.608 5.376 11.985 11.985 11.985h27.777v24.208h-32.263c-4.142 0-7.5 3.357-7.5 7.5s3.358 7.5 7.5 7.5h35.277c6.609 0 11.985-5.377 11.985-11.985v-30.237c0-6.608-5.376-11.985-11.985-11.985h-27.777v-23.841zM253.893 160.682c4.142 0 7.5-3.357 7.5-7.5s-3.357-7.5-7.5-7.5h-39.726c-6.57 0-11.915 5.345-11.915 11.914v69.22c0 6.57 5.345 11.915 11.915 11.915h39.726c4.142 0 7.5-3.357 7.5-7.5s-3.357-7.5-7.5-7.5h-36.641v-24.024H239.8c4.142 0 7.5-3.357 7.5-7.5s-3.358-7.5-7.5-7.5h-22.547v-24.024h36.64zM289.354 145.682a7.499 7.499 0 00-7.5 7.5v78.049c0 4.143 3.357 7.5 7.5 7.5h29.854c4.143 0 7.5-3.357 7.5-7.5s-3.357-7.5-7.5-7.5h-22.354v-70.549a7.5 7.5 0 00-7.5-7.5zM353.85 145.682a7.499 7.499 0 00-7.5 7.5v78.049c0 4.143 3.357 7.5 7.5 7.5h29.854c4.143 0 7.5-3.357 7.5-7.5s-3.357-7.5-7.5-7.5H361.35v-70.549a7.5 7.5 0 00-7.5-7.5zM283.811 463.027a7.499 7.499 0 00-7.5 7.5v34.021c0 4.143 3.357 7.5 7.5 7.5s7.5-3.357 7.5-7.5v-34.021a7.5 7.5 0 00-7.5-7.5z"/></g></symbol>


	</defs>
</svg>
