<svg width="45" height="45" viewBox="0 0 512.049 512.049" xmlns="http://www.w3.org/2000/svg"><path d="M283.81 497.066V364.478h-55.572v132.588a7.483 7.483 0 007.483 7.483h40.605a7.483 7.483 0 007.484-7.483z" fill="#d7d0d6"/><path d="M299.501 343.031h-86.953v39.567a8.879 8.879 0 008.879 8.879h69.195a8.879 8.879 0 008.879-8.879z" fill="#baafb9"/><path d="M256.321 382.598v-39.567h-43.773v39.567a8.879 8.879 0 008.879 8.879H265.2a8.878 8.878 0 01-8.879-8.879z" fill="#aa9ea9"/><path d="M320.679 300.648H191.37v41.529c0 7.099 5.755 12.854 12.854 12.854h103.601c7.099 0 12.854-5.755 12.854-12.854zM272.075 7.5h-32.101c-6.481 0-11.735 5.254-11.735 11.735v76.528h55.572V19.236C283.81 12.754 278.556 7.5 272.075 7.5z" fill="#d7d0d6"/><path d="M320.679 328.647v-28H191.37v41.529c0 7.099 5.755 12.854 12.854 12.854h43.773c-7.099 0-12.854-5.755-12.854-12.854V339.8c0-6.159 4.993-11.153 11.153-11.153zM228.239 53.764h55.572v42h-55.572z" fill="#c9bfc8"/><path d="M478.182 308.648H33.867c-14.453 0-26.17-11.717-26.17-26.17V99.933c0-14.453 11.717-26.17 26.17-26.17h444.315c14.453 0 26.17 11.717 26.17 26.17v182.545c0 14.453-11.717 26.17-26.17 26.17z" fill="#6ed5a1"/><path d="M83.128 282.478V99.933c0-14.453 11.717-26.17 26.17-26.17H33.867c-14.453 0-26.17 11.717-26.17 26.17v182.545c0 14.453 11.717 26.17 26.17 26.17h75.431c-14.454 0-26.17-11.717-26.17-26.17z" fill="#46cc8d"/><path d="M37.697 270.091v-157.77a8.557 8.557 0 018.557-8.557h419.54a8.557 8.557 0 018.557 8.557v157.77a8.557 8.557 0 01-8.557 8.557H46.254a8.558 8.558 0 01-8.557-8.557z" fill="#f9f7f8"/><path d="M46.254 103.764a8.557 8.557 0 00-8.557 8.557v157.77a8.557 8.557 0 008.557 8.557h36.874V103.764z" fill="#efedef"/><g><path d="M478.182 66.264H291.311V19.235C291.311 8.629 282.682 0 272.075 0h-32.101c-10.606 0-19.235 8.629-19.235 19.235v47.028H33.867C15.302 66.263.198 81.367.198 99.933v182.545c0 18.565 15.104 33.67 33.669 33.67h51.364c4.142 0 7.5-3.357 7.5-7.5s-3.358-7.5-7.5-7.5H33.867c-10.294 0-18.669-8.375-18.669-18.67V99.934c0-10.295 8.375-18.67 18.669-18.67h444.315c10.295 0 18.67 8.375 18.67 18.67v182.545c0 10.295-8.375 18.67-18.67 18.67H117.193c-4.142 0-7.5 3.357-7.5 7.5s3.358 7.5 7.5 7.5h66.676v26.028c0 11.224 9.131 20.354 20.354 20.354h.824v20.067c0 8.799 6.98 15.979 15.691 16.344v105.606c0 4.143 3.358 7.5 7.5 7.5s7.5-3.357 7.5-7.5v-105.57h40.572v39.587c0 4.143 3.357 7.5 7.5 7.5s7.5-3.357 7.5-7.5v-39.622c8.711-.365 15.69-7.545 15.69-16.344v-20.067h.824c11.223 0 20.354-9.131 20.354-20.354V316.15h150.003c18.565 0 33.67-15.104 33.67-33.67V99.934c.001-18.566-15.104-33.67-33.669-33.67zm-242.443 0V19.235A4.24 4.24 0 01239.974 15h32.101a4.24 4.24 0 014.235 4.235v47.028h-40.571zm56.262 316.335a1.38 1.38 0 01-1.379 1.379h-69.195a1.38 1.38 0 01-1.379-1.379v-20.067h71.953zm21.178-40.422a5.36 5.36 0 01-5.354 5.354H204.224a5.36 5.36 0 01-5.354-5.354v-26.028h114.309z"/><path d="M383.703 96.264H37.697a7.5 7.5 0 00-7.5 7.5v174.884a7.5 7.5 0 007.5 7.5h436.654c4.143 0 7.5-3.357 7.5-7.5V103.764c0-4.143-3.357-7.5-7.5-7.5h-58.686c-4.143 0-7.5 3.357-7.5 7.5s3.357 7.5 7.5 7.5h51.186v159.884H45.197V111.264h338.506c4.143 0 7.5-3.357 7.5-7.5s-3.357-7.5-7.5-7.5z"/><path d="M172.108 160.682c4.142 0 7.5-3.357 7.5-7.5s-3.358-7.5-7.5-7.5h-35.277c-6.609 0-11.985 5.377-11.985 11.985v29.87c0 6.608 5.376 11.985 11.985 11.985h27.777v24.208h-32.263c-4.142 0-7.5 3.357-7.5 7.5s3.358 7.5 7.5 7.5h35.277c6.609 0 11.985-5.377 11.985-11.985v-30.237c0-6.608-5.376-11.985-11.985-11.985h-27.777v-23.841zM253.893 160.682c4.142 0 7.5-3.357 7.5-7.5s-3.357-7.5-7.5-7.5h-39.726c-6.57 0-11.915 5.345-11.915 11.914v69.22c0 6.57 5.345 11.915 11.915 11.915h39.726c4.142 0 7.5-3.357 7.5-7.5s-3.357-7.5-7.5-7.5h-36.641v-24.024H239.8c4.142 0 7.5-3.357 7.5-7.5s-3.358-7.5-7.5-7.5h-22.547v-24.024h36.64zM289.354 145.682a7.499 7.499 0 00-7.5 7.5v78.049c0 4.143 3.357 7.5 7.5 7.5h29.854c4.143 0 7.5-3.357 7.5-7.5s-3.357-7.5-7.5-7.5h-22.354v-70.549a7.5 7.5 0 00-7.5-7.5zM353.85 145.682a7.499 7.499 0 00-7.5 7.5v78.049c0 4.143 3.357 7.5 7.5 7.5h29.854c4.143 0 7.5-3.357 7.5-7.5s-3.357-7.5-7.5-7.5H361.35v-70.549a7.5 7.5 0 00-7.5-7.5zM283.811 463.027a7.499 7.499 0 00-7.5 7.5v34.021c0 4.143 3.357 7.5 7.5 7.5s7.5-3.357 7.5-7.5v-34.021a7.5 7.5 0 00-7.5-7.5z"/></g></svg>
